#!OML:ASF H:\Terrain\Patient Classification 1\Walking\liu\liu.ASF
:FULLY-SPECIFIED
:DEGREES
252
root 9.74585 16.4339 15.2094 9.22972 10.5682 7.41375
lowerback -5.5011 -7.14614 -9.26446
upperback 0.763286 -8.90742 0.443718
thorax 5.36018 -4.67446 4.58261
lowerneck -17.8456 -1.9053 -12.2506
upperneck 18.2737 -2.46756 14.6421
head 8.99279 -0.476759 6.86868
rclavicle -8.34896e-014 -4.77083e-015
rhumerus -54.8392 3.50162 -74.6598
rradius 30.0021
rwrist -17.7118
rhand -29.4659 -22.5667
rfingers 7.12502
rthumb -2.80166 -52.528
lclavicle -8.34896e-014 -4.77083e-015
lhumerus -1.2328 -22.6136 76.5086
lradius 34.7524
lwrist 6.71483
lhand -11.942 -25.2993
lfingers 7.12502
lthumb 14.1129 4.20143
rfemur -48.759 11.0284 -0.656455
rtibia 27.3667
rfoot -28.0602 -18.8951
rtoes -13.5657
lfemur 18.037 0.528564 -28.1879
ltibia -4.13472e-014
lfoot -17.4709 -1.29305
ltoes -10.1586
253
root 9.73491 16.3843 15.4312 9.08673 10.632 7.72552
lowerback -5.3882 -7.20369 -9.53647
upperback 0.839409 -8.9676 0.315508
thorax 5.4093 -4.71326 4.59292
lowerneck -18.7167 -2.16 -11.8122
upperneck 19.0495 -2.80933 14.0954
head 9.46034 -0.633813 6.59541
rclavicle 1.60519e-014 2.22639e-014
rhumerus -54.6329 2.51368 -73.7102
rradius 28.9521
rwrist -16.8288
rhand -29.2611 -22.1315
rfingers 7.12502
rthumb -2.60388 -52.0953
lclavicle 1.60519e-014 2.22639e-014
lhumerus -0.948458 -22.6618 76.3075
lradius 34.7386
lwrist 6.79036
lhand -11.9906 -25.1816
lfingers 7.12502
lthumb 14.0661 4.32242
rfemur -48.3625 8.77329 0.804596
rtibia 27.6746
rfoot -26.2212 -17.3232
rtoes -13.073
lfemur 19.0864 0.568331 -28.2298
ltibia 4.77083e-014
lfoot -17.4366 -1.40458
ltoes -9.25787
254
root 9.71651 16.3295 15.6576 8.90478 10.6194 7.85563
lowerback -5.27606 -7.25486 -9.67665
upperback 1.023 -9.02735 0.249889
thorax 5.56329 -4.75706 4.58904
lowerneck -19.5519 -2.27133 -11.7807
upperneck 19.5073 -2.93494 14.1109
head 9.79543 -0.662047 6.61466
rclavicle -1.26576e-013 3.97569e-015
rhumerus -54.4437 2.24965 -73.4964
rradius 28.635
rwrist -16.656
rhand -29.8901 -22.9035
rfingers 7.12502
rthumb -3.21131 -52.8591
lclavicle -1.26576e-013 3.97569e-015
lhumerus -0.536655 -22.5828 76.0187
lradius 34.6999
lwrist 6.73609
lhand -12.0155 -25.2535
lfingers 7.12502
lthumb 14.042 4.25213
rfemur -48.2052 7.00342 2.1717
rtibia 28.3117
rfoot -25.0732 -15.9852
rtoes -13.6023
lfemur 20.1953 0.692214 -28.0424
ltibia -5.725e-014
lfoot -16.9391 -1.52856
ltoes -8.81287
255
root 9.69137 16.2819 15.8935 8.66772 10.6028 7.58548
lowerback -5.13865 -7.3191 -9.56954
upperback 1.0623 -9.14148 0.395576
thorax 5.55352 -4.81546 4.67998
lowerneck -19.4261 -2.18667 -12.1328
upperneck 19.3583 -2.78089 14.4233
head 9.70564 -0.587394 6.80634
rclavicle -6.43565e-014 -1.39149e-015
rhumerus -54.6816 2.51687 -73.4505
rradius 28.6996
rwrist -16.894
rhand -30.5694 -22.8953
rfingers 7.12502
rthumb -3.8673 -52.84
lclavicle -6.43565e-014 -1.39149e-015
lhumerus -0.484111 -22.0455 76.0948
lradius 34.5383
lwrist 6.04039
lhand -11.8817 -25.4982
lfingers 7.12502
lthumb 14.171 3.9985
rfemur -48.143 5.66416 3.79617
rtibia 29.2325
rfoot -23.7839 -14.8858
rtoes -15.048
lfemur 21.3294 0.844709 -27.3565
ltibia -1.59028e-014
lfoot -16.289 -1.95205
ltoes -8.39435
256
root 9.67245 16.2336 16.1316 8.56783 10.6162 7.73438
lowerback -5.03583 -7.37276 -9.73577
upperback 0.981489 -9.21576 0.38178
thorax 5.44631 -4.85052 4.76223
lowerneck -18.9627 -2.13169 -12.2812
upperneck 19.1067 -2.69449 14.4627
head 9.52001 -0.568754 6.83817
rclavicle 3.73218e-014 1.05356e-014
rhumerus -54.9666 2.23886 -73.0283
rradius 28.3755
rwrist -16.8438
rhand -30.698 -23.3652
rfingers 7.12502
rthumb -3.99151 -53.3076
lclavicle 3.73218e-014 1.05356e-014
lhumerus -0.599668 -21.796 76.247
lradius 34.4151
lwrist 5.63635
lhand -12.0076 -25.5848
lfingers 7.12502
lthumb 14.0496 3.92032
rfemur -48.137 4.09715 4.97983
rtibia 30.327
rfoot -22.2376 -13.4083
rtoes -16.4666
lfemur 22.3805 0.905559 -27.144
ltibia -3.18055e-014
lfoot -15.6995 -2.31061
ltoes -8.09809
257
root 9.65561 16.179 16.373 8.62447 10.5626 8.1661
lowerback -5.20969 -7.41999 -10.0935
upperback 1.06166 -9.22159 0.196148
thorax 5.65834 -4.86847 4.72794
lowerneck -18.9634 -2.10618 -12.2138
upperneck 18.9259 -2.67489 14.5191
head 9.45484 -0.548288 6.841
rclavicle 4.43787e-014 3.18055e-015
rhumerus -54.781 1.38895 -72.4677
rradius 27.8136
rwrist -16.3197
rhand -30.9006 -24.552
rfingers 7.12502
rthumb -4.18713 -54.4906
lclavicle 4.43787e-014 3.18055e-015
lhumerus -0.45984 -21.9909 76.0719
lradius 34.3654
lwrist 5.69055
lhand -12.4313 -25.6006
lfingers 7.12502
lthumb 13.6414 3.93238
rfemur -48.3308 2.61065 5.72147
rtibia 31.6302
rfoot -20.8598 -11.6094
rtoes -16.5648
lfemur 23.2965 0.988778 -27.2873
ltibia -3.18055e-014
lfoot -15.0244 -2.22326
ltoes -10.7983
258
root 9.6285 16.1292 16.6252 8.76709 10.429 8.46994
lowerback -5.5267 -7.51159 -10.5125
upperback 1.07104 -9.26979 0.0902315
thorax 5.9072 -4.90965 4.7879
lowerneck -19.3488 -2.04451 -11.9426
upperneck 19.2326 -2.63696 14.4284
head 9.62248 -0.507869 6.78601
rclavicle -7.00716e-015 7.7526e-015
rhumerus -54.5825 0.602692 -71.7777
rradius 27.0427
rwrist -15.0142
rhand -30.4695 -23.4024
rfingers 7.12502
rthumb -3.77087 -53.3488
lclavicle -7.00716e-015 7.7526e-015
lhumerus -0.509503 -22.0455 75.9137
lradius 34.233
lwrist 5.48546
lhand -12.7717 -25.79
lfingers 7.12502
lthumb 13.3132 3.76469
rfemur -48.7556 1.63725 6.42128
rtibia 33.1328
rfoot -18.2652 -10.7649
rtoes -17.0229
lfemur 24.0368 1.13691 -27.2574
ltibia 2.54444e-014
lfoot -14.3792 -2.09332
ltoes -16.1373
259
root 9.60863 16.1086 16.8804 9.05573 10.2334 8.93811
lowerback -5.65349 -7.59166 -10.9947
upperback 0.671754 -9.34014 0.00172602
thorax 5.62697 -4.92971 4.95546
lowerneck -19.4468 -1.93605 -11.5994
upperneck 19.9362 -2.5482 14.0218
head 9.86199 -0.482386 6.62103
rclavicle 8.29926e-014 -2.36554e-014
rhumerus -55.0107 -0.0856549 -70.7696
rradius 26.357
rwrist -13.5815
rhand -29.6799 -21.4657
rfingers 7.12502
rthumb -3.00834 -51.4243
lclavicle 8.29926e-014 -2.36554e-014
lhumerus -1.28571 -21.8013 76.2547
lradius 34.0922
lwrist 4.79446
lhand -12.7079 -26.0046
lfingers 7.12502
lthumb 13.3747 3.54608
rfemur -49.4028 0.670191 6.85226
rtibia 34.6326
rfoot -14.0973 -10.6259
rtoes -20.4403
lfemur 24.5909 1.30497 -27.408
ltibia 6.04305e-014
lfoot -13.5542 -2.3147
ltoes -19.8227
260
root 9.5978 16.104 17.1335 9.28775 9.95536 9.23865
lowerback -5.79724 -7.58565 -11.213
upperback 0.362386 -9.31311 -0.0103995
thorax 5.40483 -4.90054 5.07014
lowerneck -19.4021 -1.88811 -11.6735
upperneck 20.2262 -2.47238 13.9548
head 9.94333 -0.462475 6.63311
rclavicle 6.30644e-014 -2.68359e-014
rhumerus -55.5401 -0.310194 -70.1775
rradius 26.2469
rwrist -13.1841
rhand -29.8701 -21.2272
rfingers 7.12502
rthumb -3.19202 -51.183
lclavicle 6.30644e-014 -2.68359e-014
lhumerus -2.03416 -21.4047 76.7644
lradius 34.1321
lwrist 4.14415
lhand -12.3269 -26.0198
lfingers 7.12502
lthumb 13.7419 3.50637
rfemur -50.1071 0.132047 7.03434
rtibia 36.1239
rfoot -10.5391 -10.1205
rtoes -20.9856
lfemur 25.1847 1.57603 -27.4116
ltibia 5.725e-014
lfoot -12.3201 -2.69481
ltoes -21.6031
